<svg width="32" height="32" viewBox="0 0 32 32" fill="none" xmlns="http://www.w3.org/2000/svg">
<path d="M7.33337 26C7.33337 26 12 24 13.3334 22.6667C14.6667 21.3333 10.6667 21.3333 10.6667 14.6667C10.6667 8 16 8 16 8C16 8 21.3334 8 21.3334 14.6667C21.3334 21.3333 17.3334 21.3333 18.6667 22.6667C20 24 24.6667 26 24.6667 26" stroke="#32B6B8" stroke-linecap="round"/>
<path fill-rule="evenodd" clip-rule="evenodd" d="M16 29.3334C23.3638 29.3334 29.3333 23.3639 29.3333 16.0001C29.3333 8.63628 23.3638 2.66675 16 2.66675C8.63616 2.66675 2.66663 8.63628 2.66663 16.0001C2.66663 23.3639 8.63616 29.3334 16 29.3334Z" stroke="#32B6B8"/>
</svg>
