<svg width="26" height="42" viewBox="0 0 26 42" fill="none" xmlns="http://www.w3.org/2000/svg">
<g clip-path="url(#clip0_1332_1450)">
<path fill-rule="evenodd" clip-rule="evenodd" d="M5.98638 38.1439C5.98638 37.3779 7.4873 36.8585 7.4873 38.39C7.4873 39.099 5.98638 39.311 5.98638 38.1439ZM11.9287 0.000732422H13.5774C15.0072 0.135613 16.4151 0.608092 17.6778 1.31303C18.3618 1.69487 19.0104 2.24448 19.5538 2.81016C20.2663 3.5519 20.9579 4.46269 21.4181 5.4679C21.8186 6.34269 22.3384 7.87337 22.3384 9.10589V22.8046C22.3384 24.2195 21.9884 25.3465 21.4432 26.4687C21.2953 26.7732 21.0655 27.1678 20.9954 27.4802C21.3695 27.5707 22.2753 28.1037 22.6543 28.3005C24.2543 29.1312 25.8141 30.379 25.8141 32.648V41.261C25.8141 41.6439 25.6299 41.8352 25.2612 41.8352C24.3976 41.8352 24.6292 40.8677 24.6292 39.9485C24.6292 39.1556 24.6292 38.3626 24.6292 37.5697C24.6292 35.6408 25.0586 32.4857 24.0103 30.9118C23.2233 29.7302 21.2664 29.0619 19.7315 28.2185V32.4019C20.6135 32.4781 21.6274 33.6963 21.6274 34.6987V40.6048C21.6274 41.3682 20.981 41.9087 20.443 41.9992H20.1469C19.905 41.9509 19.7315 41.7702 19.7315 41.425C19.7315 40.5053 20.4425 41.1163 20.4425 40.3587V36.3393H17.8356V40.4407C17.8356 40.9017 18.6256 40.5503 18.6256 41.343C18.6256 42.4122 16.5717 42.1805 16.5717 40.1126V35.437C16.5717 33.9778 17.0723 32.7395 18.4676 32.4019C18.4676 31.4996 18.4676 30.5973 18.4676 29.695C18.4676 28.074 18.6916 27.548 18.0726 27.3982C18.0385 27.8236 17.6229 28.923 17.4705 29.3978L15.8741 34.2204C15.5335 35.2406 14.0815 34.9462 14.9918 32.9761H10.8841C11.0658 33.3693 11.2351 34.0281 11.3878 34.5037C11.6778 35.4067 12.8024 38.4225 12.859 39.1283H13.017C13.0473 38.749 13.3335 38.0225 13.4608 37.6205C13.6137 37.1373 13.7134 36.5854 14.2809 36.5854C15.4878 36.5854 14.328 38.9415 14.0737 39.7334C13.8195 40.5249 13.6258 41.8352 12.9379 41.8352C12.5057 41.8352 12.3914 41.5813 12.2733 41.2129L8.97813 31.0999C8.60384 29.9335 8.07347 28.6025 7.80329 27.3982C7.57813 27.4527 7.32931 27.525 7.32931 27.8084V36.0112C7.32931 36.2644 7.61681 36.3175 7.83729 36.468C9.42645 37.5527 8.80764 40.2767 6.69736 40.2767C5.14809 40.2767 4.26459 38.3195 5.10357 37.0631C5.36091 36.6777 5.65285 36.3762 6.14438 36.2573V28.2185C3.91433 29.4438 1.56165 29.8228 1.2577 32.8235C1.09188 34.4604 1.24666 38.0559 1.24668 40.0306C1.24668 40.8456 1.46251 41.8352 0.693733 41.8352C0.30242 41.8352 0.0617676 41.7003 0.0617676 41.261V32.648C0.0617676 30.379 1.62161 29.1312 3.22157 28.3005C3.60062 28.1037 4.50643 27.5707 4.88045 27.4802C4.83056 26.8574 3.53756 25.3018 3.53756 22.8046V9.1879C3.53756 7.98612 4.54883 4.02013 5.6704 4.02013C6.16665 4.02013 6.43252 4.57339 5.95462 5.29959C5.11181 6.58034 4.72246 8.09371 4.72246 9.76211V22.2304C4.72246 24.0557 5.22769 25.3351 5.98638 26.824C6.27208 26.7549 9.14302 25.2688 9.3652 25.0828C9.64747 24.8464 9.70096 24.6264 9.70293 24.121L9.69917 20.1797C9.33711 20.0921 8.59908 19.4804 8.33483 19.2176C5.97773 16.8737 6.22338 14.5483 6.22338 11.3206C6.22338 11.0802 6.33477 10.8613 6.47475 10.7614C7.13199 10.2919 10.0566 11.2136 11.855 6.75097C12.0932 6.15988 12.231 5.58648 13.0066 5.62733C14.2047 5.69047 13.9937 7.63342 15.7699 9.11827C16.6774 9.877 17.6344 10.416 18.8158 10.713C19.2601 10.8248 19.6525 10.8623 19.6525 11.4027C19.6525 14.8114 19.9379 16.8169 17.462 19.2996C17.0031 19.7597 16.2557 20.087 16.2557 20.3438V24.6092C16.2557 25.1339 17.5371 25.6436 17.9673 25.867C18.415 26.0995 19.4842 26.7259 19.8895 26.824C20.6169 25.3965 21.1534 24.0249 21.1534 22.2304V9.92618C21.1534 3.16321 14.3516 -0.796136 8.8833 2.35266C8.57902 2.52787 8.14691 2.95376 7.80329 2.95376C7.42117 2.95376 7.17132 2.69432 7.17132 2.29752C7.17132 1.69425 8.87239 0.935126 9.40952 0.684343C10.2224 0.304815 11.071 0.0846617 11.9287 0.000732422ZM19.0206 33.5503C20.1282 33.5503 20.2924 34.3581 20.4425 35.0268H17.8356C17.8356 34.1068 18.5198 33.5503 19.0206 33.5503ZM8.90922 26.742C9.62334 26.5692 10.7648 25.763 10.8768 24.7658C10.9926 23.7354 10.8841 21.8734 10.8841 20.7539C11.7609 21.1907 14.1003 21.1981 14.9918 20.7539C14.9918 21.7391 14.8776 23.9092 15.0095 24.7549C15.157 25.7005 16.2547 26.5697 16.9667 26.742C16.9503 27.5055 15.5196 30.9926 15.4658 31.6637H10.4891C10.3376 31.3358 8.97524 27.2767 8.90922 26.742ZM7.4083 11.8948C9.38623 11.7239 11.0502 10.5512 12.0547 9.009C12.3185 8.60402 12.8263 7.79883 12.9379 7.30127C13.0092 7.38635 12.942 7.28502 13.0378 7.44363L13.3864 8.06599C13.5608 8.37026 13.7041 8.58234 13.8963 8.84894C14.9087 10.253 17.0592 11.8623 18.4676 11.8948C18.4676 14.3922 18.6666 16.2519 16.8681 18.1087C16.3169 18.6777 16.0048 18.9301 15.2565 19.3062C12.8536 20.5137 9.97943 19.5363 8.56976 17.5792C7.38354 15.9322 7.4083 14.6658 7.4083 11.8948Z" fill="white"/>
<path fill-rule="evenodd" clip-rule="evenodd" d="M10.884 16.9805C10.884 17.6197 12.0927 18.2109 13.0169 18.2109C13.7329 18.2109 14.9918 17.6133 14.9918 16.9805C14.9918 16.6945 14.6351 16.3242 14.3598 16.3242C13.9659 16.3242 13.6298 16.9632 12.9379 16.9632C12.246 16.9632 11.9099 16.3242 11.516 16.3242C11.2407 16.3242 10.884 16.6945 10.884 16.9805Z" fill="white"/>
</g>
<defs>
<clipPath id="clip0_1332_1450">
<rect width="26" height="42" fill="white"/>
</clipPath>
</defs>
</svg>
