<svg width="38" height="42" viewBox="0 0 38 42" fill="none" xmlns="http://www.w3.org/2000/svg">
<path fill-rule="evenodd" clip-rule="evenodd" d="M3.30437 36.1232H15.5929V40.3212H3.30437V36.1232ZM4.13052 33.8144C4.13052 33.0643 4.42495 32.7651 5.16308 32.7651H13.7342C14.9397 32.7651 14.7667 33.5136 14.7667 34.4443H4.13052V33.8144ZM7.64158 25.314L8.85805 24.1364C8.13054 23.0075 4.9567 20.5952 4.9567 19.7518C4.9567 19.1537 5.27955 19.0172 5.78285 19.0172C6.34394 19.0172 7.04772 19.9356 7.61568 20.5127C12.1259 25.0963 11.5654 23.7738 11.5654 31.0859H7.43489C7.43489 29.8902 6.9425 28.952 6.44572 28.2085C5.02631 26.0831 1.65201 24.2532 1.65201 21.4311V11.8813C1.65201 10.6602 3.30437 10.6602 3.30437 11.8813V18.3877C3.30437 20.7847 2.79635 20.3376 4.82743 22.4017L7.64158 25.314ZM0 11.5662V22.0606C0 23.0731 0.559516 24.085 0.989164 24.7285C1.51682 25.5186 2.11507 26.047 2.76231 26.7044C3.66529 27.6224 4.73749 28.5074 5.30419 29.6834C5.53619 30.1647 5.59459 30.6873 5.78285 31.0859C4.40153 31.0859 3.89448 31.0538 3.17072 31.7896C2.44665 32.5255 2.47819 33.0405 2.47819 34.4443C1.96988 34.4871 1.65201 34.7346 1.65201 35.2839V41.1605C1.65201 41.6682 1.97861 42.0001 2.47819 42.0001H16.6255C17.1469 42.0001 17.3483 41.223 17.3483 40.636V35.8084C17.3483 35.0852 17.1837 34.5001 16.5221 34.4443C16.5221 32.8669 16.0737 31.0859 14.2503 31.0859H13.2177C13.2177 22.7031 13.8591 24.4487 7.92539 18.414C7.55385 18.0361 7.26878 17.6728 6.80012 17.4586C6.36455 17.26 5.47531 17.0851 4.9567 17.3384C4.9567 15.6246 4.94762 13.9085 4.95733 12.1954C4.98137 7.92629 0 8.82173 0 11.5662Z" fill="white"/>
<path fill-rule="evenodd" clip-rule="evenodd" d="M22.4072 36.1232H34.6958V40.3212H22.4072V36.1232ZM23.2334 33.6047C23.2334 33.097 23.56 32.7651 24.0596 32.7651H32.837C33.9911 32.7651 33.8696 33.5235 33.8696 34.4443H23.2334V33.6047ZM33.0434 17.4431C31.4417 17.3076 31.4913 16.9741 29.6616 18.8335C28.9825 19.524 28.3787 20.1374 27.6996 20.8275C24.5179 24.0612 24.7824 24.0447 24.7824 28.5674H26.4347C26.4347 24.4534 26.3732 24.5896 29.0937 21.8245C29.7385 21.1693 30.3083 20.5914 30.9524 19.9356C31.2615 19.6208 31.5247 19.2302 31.9928 19.0963C32.6082 18.9205 32.9404 19.312 32.9404 20.0669C32.9404 20.3998 29.3194 23.9188 29.1196 24.0546L30.3339 25.339C31.5703 23.5005 34.4738 22.0409 34.6833 19.9492C34.8207 18.5813 34.545 11.9672 34.7941 11.4561C35.2238 10.5736 36.3481 10.9512 36.3481 11.8813V21.4311C36.3481 25.2318 30.5652 26.8609 30.5652 31.0859H23.7498C21.9264 31.0859 21.478 32.8669 21.478 34.4443C21.172 34.5166 20.7549 34.7156 20.7549 35.0738V41.3705C20.7549 41.7107 21.2039 42.0001 21.5811 42.0001H35.5219C36.0215 42.0001 36.3481 41.6682 36.3481 41.1605V35.2839C36.3481 34.7346 36.0302 34.4871 35.5219 34.4443C35.5219 31.7506 34.8678 31.0859 32.2176 31.0859C32.3906 30.7194 32.4577 30.1993 32.6622 29.7541C33.4759 27.9848 35.8001 26.4785 36.9685 24.7901C37.3807 24.1945 38.0001 23.0589 38.0001 22.0606V11.5662C38.0001 8.82173 33.0187 7.92629 33.0428 12.1954C33.0528 13.9435 33.0434 15.6947 33.0434 17.4431Z" fill="white"/>
<path fill-rule="evenodd" clip-rule="evenodd" d="M9.9131 6.109C9.9131 1.81863 14.9991 0.146726 17.3511 3.48229C17.668 3.93193 17.9756 4.59192 18.0686 5.27192C18.142 5.80627 18.0655 6.94859 19.0003 6.94859C20.2115 6.94859 19.6204 5.16659 20.4634 3.81802C23.8193 -1.549 31.3622 4.52085 26.5645 9.38872L21.6577 14.4768C20.1162 16.0357 19.3669 18.0062 17.585 15.8381C17.3408 15.5411 17.2952 15.4427 17.0133 15.1596L14.5445 12.6313C12.7032 10.2854 9.9131 8.90769 9.9131 6.109ZM8.26074 5.6895C8.26074 7.33065 8.41843 8.22103 9.31205 9.55339L9.94212 10.3822C10.1744 10.6421 10.3883 10.7179 10.6653 11.0118L12.7269 13.219C13.205 13.7051 13.6686 14.136 14.1223 14.6345C14.3812 14.9191 14.4495 15.0794 14.7393 15.3719C15.902 16.5479 17.4301 18.4927 18.6906 18.4927C19.8917 18.4927 20.2174 18.473 21.1432 17.522L23.2105 15.4249C23.5015 15.126 23.5867 14.9328 23.8777 14.6339L28.0104 10.3333C28.5009 9.8374 28.8787 9.38174 29.1916 8.70049C30.5108 5.82977 29.5572 2.23906 26.5551 0.635055C24.3042 -0.567221 21.3277 0.0762713 19.8555 1.73107C19.513 2.11595 19.1973 2.44627 19.1037 2.85594H18.897C18.714 2.15848 17.6025 1.26333 17.0195 0.880979C13.1584 -1.64956 8.26074 1.68028 8.26074 5.6895Z" fill="white"/>
</svg>
