<svg width="42" height="42" viewBox="0 0 42 42" fill="none" xmlns="http://www.w3.org/2000/svg">
<g clip-path="url(#clip0_1332_1460)">
<path fill-rule="evenodd" clip-rule="evenodd" d="M16.4092 27.312C17.2405 27.1184 19.4871 25.1294 20.3096 24.4903C20.6106 24.2564 20.726 24.0826 21.0472 23.8345C21.5852 23.419 24.4624 20.4516 25.0867 19.6763C25.2025 19.5323 25.2796 19.4804 25.4021 19.3359L26.9025 17.3933C27.0376 17.1898 27.311 16.6942 27.4759 16.5732C27.9284 18.515 26.4249 20.5888 25.4034 21.9604C23.8456 24.0522 21.0855 26.4439 18.5939 27.2833C18.1649 27.4278 16.7678 27.8012 16.4092 27.312ZM15.0156 26.4923C14.9461 26.4923 13.1563 25.476 12.8051 24.8501C10.9628 21.5671 10.888 22.5453 14.0114 19.4219L21.3892 12.044C22.4421 10.9838 22.5348 11.6121 24.2236 12.4478C25.572 13.1149 25.3527 13.2774 26.1148 14.4095C26.5673 15.0817 26.6436 15.0461 26.3586 15.6173C26.2349 15.8651 26.1565 16.0407 26.0175 16.2624C25.5488 17.0092 24.0617 18.8775 23.4402 19.5054C22.5047 20.451 20.6289 22.5023 19.559 23.3298C18.7767 23.9348 15.973 26.4923 15.0156 26.4923ZM8.39562 3.80496L18.0285 13.3964L13.3965 18.0691L3.80546 8.43726L8.39562 3.80496ZM1.32572 2.3914C1.32572 2.03386 2.06088 0.52104 3.39612 1.8787C3.68686 2.1744 3.92232 2.40578 4.21542 2.69888C4.62984 3.11318 5.55872 3.94712 5.83446 4.35882C5.74312 4.70086 5.43478 4.88156 5.19906 5.11714C4.93942 5.37666 4.7332 5.63864 4.44086 5.83446C4.06696 5.73456 2.33242 3.84462 1.91984 3.43676C1.64484 3.16486 1.32572 2.91118 1.32572 2.3914ZM0.0141602 2.3914C0.0141602 3.684 0.76654 4.16858 1.46924 4.87126C1.9481 5.35014 2.98876 6.50442 3.45708 6.8181C2.99136 7.5136 1.75316 8.02432 2.28074 8.81426L7.16646 13.7655C7.59204 14.191 12.158 18.6824 12.3925 19.0325C11.6843 20.09 9.23736 21.2038 10.4509 23.4333C10.603 23.7128 10.7033 23.8719 10.8622 24.1697C11.223 24.8461 11.768 25.9248 12.3085 26.3304C13.2141 27.0101 15.8377 28.8695 16.9011 28.8695C18.7913 28.8695 20.2183 28.2201 21.6234 27.2797C22.7555 26.522 23.872 25.6223 24.833 24.669C26.5847 22.9315 28.9516 19.6597 28.9516 17.2291C28.9516 16.1013 28.4183 15.4503 27.9669 14.7706L26.6246 12.67C25.9172 11.5986 24.8022 11.2745 23.5887 10.5415C21.2188 9.10996 20.2572 11.5723 19.0325 12.3925C18.659 12.1423 11.893 5.294 11.2243 4.62526L9.25706 2.65774C7.85812 1.24206 7.85056 3.09942 6.8181 3.37518C5.28334 2.3474 4.32522 0.0141602 2.3914 0.0141602C1.12606 0.0141602 0.0141602 1.13054 0.0141602 2.3914Z" fill="white"/>
<path fill-rule="evenodd" clip-rule="evenodd" d="M18.8687 41.3299C18.8687 41.8071 19.1637 41.9493 19.5355 41.9858H20.3442C24.1233 41.9858 29.1795 40.2636 32.0443 38.1925C34.484 36.4287 35.2908 35.7158 37.2944 33.2775C38.2827 32.0749 39.1867 30.4416 39.8823 29.0616C41.1962 26.4551 41.9858 23.0724 41.9858 19.5245C41.9858 18.7109 40.7114 18.5252 40.6715 19.6037C40.5972 21.6046 40.3512 23.7903 39.7426 25.6428C39.1885 27.3291 38.5347 29.0433 37.5592 30.5094C37.3686 30.7958 37.2309 31.0578 37.0187 31.3625C36.1578 32.5995 34.9125 34.1342 33.7305 35.1239C30.4674 37.856 27.9977 39.3752 23.467 40.2719C22.8426 40.3955 21.7108 40.5898 21.0023 40.5944C20.4324 40.598 20.2194 40.6623 19.686 40.6717C19.1787 40.6806 18.8687 40.8259 18.8687 41.3299Z" fill="white"/>
<path fill-rule="evenodd" clip-rule="evenodd" d="M18.8687 36.6573C18.8687 37.3902 19.1485 37.4771 19.7704 37.4771C29.3295 37.4771 37.4771 29.4026 37.4771 19.5245C37.4771 18.7749 36.3782 18.5426 36.1404 19.4174C36.0729 19.666 36.0859 20.1361 36.0863 20.5108C36.0883 22.6203 34.9574 26.2481 33.7399 28.0835C33.5668 28.3443 33.4582 28.5601 33.297 28.7882C32.6075 29.763 32.3854 29.9402 31.8087 30.6609C31.363 31.2177 31.2189 31.3263 30.6974 31.763C29.2421 32.9814 29.1455 33.1483 27.45 34.0899C25.9823 34.905 24.2926 35.5497 22.5589 35.839C21.9993 35.9323 21.2134 36.0799 20.5934 36.0867C20.2587 36.0904 18.8687 35.9656 18.8687 36.6573Z" fill="white"/>
<path fill-rule="evenodd" clip-rule="evenodd" d="M18.8687 32.0667C18.8687 32.8289 19.5985 32.7225 20.0983 32.7225C22.6409 32.7225 25.2521 31.605 27.1329 30.3299C28.138 29.6483 29.6033 28.1858 30.2967 27.1817C31.8504 24.9321 32.7225 22.515 32.7225 19.5245C32.7225 19.1279 32.4633 18.8687 32.0667 18.8687C30.9192 18.8687 31.8194 20.7346 30.545 23.9051C29.9015 25.5064 29.0253 26.7892 27.9064 27.9064C26.7945 29.0169 25.5378 29.8834 23.9638 30.5219C20.7591 31.8221 18.8687 30.918 18.8687 32.0667Z" fill="white"/>
</g>
<defs>
<clipPath id="clip0_1332_1460">
<rect width="42" height="42" fill="white"/>
</clipPath>
</defs>
</svg>
