<svg width="42" height="42" viewBox="0 0 42 42" fill="none" xmlns="http://www.w3.org/2000/svg">
<path fill-rule="evenodd" clip-rule="evenodd" d="M5.66016 35.2734C5.11001 35.2734 4.59375 34.8294 4.59375 34.2891C4.59375 33.7385 5.08518 33.1811 5.33203 32.8125C5.85748 32.9528 6.5099 33.7334 7.05468 33.8789C6.96714 34.2068 6.3217 35.2734 5.66016 35.2734ZM0.946575 42H0.671855C0.307362 41.9413 0 41.6539 0 41.2617C0 40.5729 1.26227 39.0856 1.68964 38.4396L3.4453 35.8476C2.2874 34.1185 3.15502 33.0371 4.01954 31.7461C3.53049 31.0158 3.1172 30.5323 3.1172 29.4492C3.1172 27.8334 3.41957 27.7041 4.25024 26.4807L9.74632 18.5237C9.8799 18.3269 9.97166 18.177 10.1052 17.9802C10.3596 17.6057 10.5877 17.3015 10.8444 16.9147L13.7984 12.65C14.0927 12.2104 14.4123 11.8688 14.4375 11.5664C14.0524 11.4636 13.7359 10.9892 13.5504 10.6488C12.4715 8.66877 14.1207 6.64453 15.832 6.64453C17.5996 6.64453 18.2637 7.98607 19.1953 8.20313C19.2895 7.85054 21.0082 5.60846 21.3281 5.0039C21.1963 4.82395 20.0977 4.1502 20.0977 2.70705C20.0977 1.2465 21.3944 0 22.5586 0C23.994 0 24.2601 0.364929 25.594 1.31222L30.2524 4.52886C33.1781 6.47521 31.3189 9.6797 29.1211 9.6797C27.8505 9.6797 28.0557 9.35975 27.3164 9.18749C27.2388 9.47814 26.9578 9.76421 26.7745 10.0401C26.5757 10.3396 26.4409 10.5417 26.2375 10.8156C26.0433 11.0771 25.8984 11.3134 25.7088 11.5994C25.5073 11.9035 25.342 12.0874 25.1836 12.3867C25.329 12.5852 25.7805 12.8348 26.027 13.0199C26.3183 13.2387 26.5654 13.3694 26.8445 13.5969C28.1992 14.7012 28.2655 16.4981 27.2985 17.5367C26.1845 18.7333 24.8733 18.6688 23.543 17.9649C23.4829 18.1899 23.3092 18.3568 23.1653 18.5715L21.5896 20.8513C21.4438 21.0661 21.3515 21.2215 21.1976 21.4436L13.3226 32.846C12.7408 33.6856 12.3421 34.3019 11.3774 34.7562C9.95517 35.4261 9.14344 34.921 8.44923 34.8633C7.66228 36.3505 6.59136 37.2401 4.83985 36.832L2.03538 40.9182C1.86984 41.162 1.72194 41.3595 1.56117 41.5924C1.39254 41.8367 1.1703 41.9639 0.946575 42ZM16.7344 24.8555L14.8807 23.592C14.5856 23.3962 14.2321 23.0781 13.8635 23.0849C13.4709 23.0921 13.043 23.3867 13.043 23.9531C13.043 24.5495 14.3332 25.2791 14.9794 25.7081C15.2737 25.9035 15.4759 26.0665 15.75 26.25C15.6235 26.7239 14.7917 27.5678 14.6836 27.9727C13.9356 27.7729 12.7174 26.0885 11.8953 26.9891C11.2882 27.6542 11.9256 28.1919 12.4687 28.547C12.7632 28.7394 13.2947 29.199 13.6172 29.2852C13.59 29.6121 12.6433 30.8909 12.4687 31.0078C11.629 30.7836 10.5282 29.2852 9.4336 29.2852C9.05859 29.2852 8.21534 30.2045 9.28464 30.9107C9.55416 31.0886 9.74862 31.2469 10.0075 31.4183C10.4974 31.7425 10.964 32.127 11.4844 32.4024C11.3223 33.0095 10.5326 33.3867 9.84375 33.3867C8.92043 33.3867 8.36851 32.7826 7.54659 32.2386C6.77938 31.7308 5.32924 30.8396 4.9986 30.1928C4.33366 28.892 5.24018 28.0357 5.88993 27.054C6.3545 26.3521 6.84736 25.7054 7.30107 25.0198C7.8493 24.1915 9.77357 21.5157 10.0899 20.918L14.6135 21.0701C15.3309 21.1506 16.2383 21.0415 16.9809 21.0816L19.2774 21.164C19.2107 21.4135 16.9416 24.7036 16.7344 24.8555ZM20.5078 19.5234L15.9965 19.359C15.2267 19.3174 14.3865 19.4013 13.6168 19.3598L11.3203 19.2773L15.832 12.6328L21.3871 16.4293C21.6773 16.6472 21.9174 16.8148 22.2305 16.9805L21.3616 18.2444C21.0507 18.6932 20.7599 19.047 20.5078 19.5234ZM14.9297 9.35157C14.9297 8.59524 15.4306 8.36718 16.0781 8.36718C16.5373 8.36718 18.784 10.0835 19.3748 10.4846L25.2981 14.5691C25.7653 14.8772 26.25 15.0939 26.25 15.832C26.25 16.3723 25.7337 16.8164 25.1836 16.8164C24.7251 16.8164 22.4278 15.0852 21.8206 14.6833L15.8969 10.5992C15.6903 10.4611 15.4679 10.309 15.2786 10.1511C15.0394 9.95188 14.9297 9.76319 14.9297 9.35157ZM23.7891 11.4024C23.4331 11.3073 22.4984 10.5672 22.1487 10.3356C21.8367 10.129 20.7595 9.33672 20.5078 9.26955C20.5794 9.00156 20.5985 9.07072 20.7518 8.85725C20.847 8.72457 20.9175 8.61431 21.0164 8.4656C21.2183 8.16199 21.374 7.92785 21.5867 7.64142L22.7227 5.9883C23.0295 6.0702 23.2594 6.31931 23.5258 6.49768C23.8205 6.69506 24.0895 6.86075 24.363 7.05496C24.8986 7.43539 25.4572 7.83702 26.0039 8.20313L24.9029 9.80913C24.6955 10.094 24.5459 10.3068 24.3636 10.5823C24.1741 10.8687 23.9804 11.1166 23.7891 11.4024ZM21.8203 2.78907C21.8203 2.18498 22.0516 1.81754 22.6078 1.68319C23.1339 1.55609 23.5303 1.93236 23.8548 2.14914L29.2379 5.87146C29.6613 6.17662 30.0234 6.27414 30.0234 6.97266C30.0234 7.89756 29.2439 8.39189 27.9879 7.53164L22.6569 3.83918C22.2994 3.60318 21.8203 3.35472 21.8203 2.78907Z" fill="white"/>
<path fill-rule="evenodd" clip-rule="evenodd" d="M38.3906 40.3594H30.6797C29.6681 40.3594 28.875 39.6776 28.875 38.9649V30.1055C28.875 28.5304 30.2477 26.8959 31.7547 26.4227C32.0105 26.3424 32.3736 26.2812 32.5682 26.1698C33.2033 25.8063 32.9766 24.2291 32.9766 23.0508H36.1758C36.1758 25.3825 35.8902 26.0101 37.2072 26.367C39.0602 26.8693 40.3594 28.5488 40.3594 30.6797V38.3906C40.3594 39.6954 39.6954 40.3594 38.3906 40.3594ZM37.7344 21.4102H31.3359C30.2338 21.4102 30.2338 19.7695 31.3359 19.7695H37.7344C39.0254 19.7695 38.9813 21.4102 37.7344 21.4102ZM28.793 20.5898C28.793 21.8856 29.8356 23.0508 31.2539 23.0508V24.8555C30.7539 24.8971 30.0039 25.3694 29.6472 25.6276C29.1161 26.0121 28.7917 26.3251 28.4052 26.8466C27.7154 27.7771 27.1523 28.9295 27.1523 30.5156V38.8008C27.1523 40.4202 28.6285 42 30.2695 42H38.9648C39.8961 42 40.5504 41.5234 41.0369 41.0369C41.5684 40.5053 42 39.7931 42 38.9649V30.1055C42 28.8376 41.2639 27.3913 40.6637 26.6839C40.2847 26.2373 39.9052 25.8962 39.4232 25.5455C39.0228 25.2543 38.6662 25.1116 38.2321 24.932C37.7358 24.7266 37.8984 24.6444 37.8984 23.0508C39.3837 23.0508 40.3594 21.9381 40.3594 20.5078C40.3594 19.3277 39.2862 18.1289 38.1445 18.1289H31.0078C29.9849 18.1289 28.793 19.2283 28.793 20.5898Z" fill="white"/>
<path fill-rule="evenodd" clip-rule="evenodd" d="M33.7147 31.0896V32.4841C33.1029 32.4841 32.0254 32.3893 31.611 32.6774C30.9891 33.1096 31.216 34.2068 32.2381 34.2068H33.7147C33.7147 35.2382 33.4868 36.6677 34.617 36.6677C35.6858 36.6677 35.4373 35.1589 35.4373 34.2068C36.5835 34.2068 37.8983 34.4445 37.8983 33.3044C37.8983 32.2491 36.3052 32.4841 35.4373 32.4841C35.4373 31.3845 35.6771 30.0232 34.535 30.0232C34.097 30.0232 33.7147 30.4848 33.7147 31.0896Z" fill="white"/>
</svg>
