<svg width="42" height="42" viewBox="0 0 42 42" fill="none" xmlns="http://www.w3.org/2000/svg">
<path fill-rule="evenodd" clip-rule="evenodd" d="M11.0742 40.1133C8.26954 40.1133 5.52827 38.781 3.85404 36.5874C3.74554 36.4452 3.65296 36.3179 3.53804 36.1651C1.39172 33.3114 1.35034 28.3467 3.88046 25.3727C4.46519 24.6854 13.4853 15.5659 13.9453 15.2578L26.7626 28.0342C26.4902 28.4321 20.34 34.4979 19.831 35.0069C17.8558 36.982 16.6923 38.5704 14.0407 39.5524C13.3318 39.815 12.0567 40.1133 11.0742 40.1133ZM42 10.7224V11.6805C41.9548 12.6934 41.7627 13.6963 41.3913 14.6491C40.5494 16.8092 39.914 17.6309 38.2881 19.2568L21.1436 36.4014C19.9683 37.5766 18.5569 39.1803 17.2113 40.098C15.5133 41.2563 13.5183 41.901 11.5004 42H10.4038C8.96695 41.9289 7.5436 41.5779 6.23307 40.9349C4.37669 40.0241 3.16997 38.8965 1.97942 37.3136C0.532622 35.3899 0 32.9992 0 30.5976C0 29.5165 0.306228 28.1773 0.621182 27.3634C1.85664 24.1706 3.16499 23.2901 5.5986 20.8564L20.8564 5.5986C22.0317 4.4234 23.4431 2.81973 24.7887 1.90195C26.9382 0.435776 28.8766 0 31.5 0C34.2548 0 37.0065 1.45581 38.8214 3.26065C39.8557 4.28935 40.8797 5.84947 41.3549 7.28967C41.718 8.39016 41.9494 9.55465 42 10.7224ZM28.0547 26.7422L15.2374 13.9658C15.9562 13.4733 24.1225 4.87559 25.5467 3.80847C27.8246 2.10187 31.1131 1.42531 33.7859 2.38982C35.859 3.13791 37.3622 4.23784 38.6049 6.10208C40.2474 8.56602 40.6266 12.0971 39.1572 15.04C38.1427 17.0716 35.5438 19.3761 33.8174 21.1026L28.8545 26.0654C28.6094 26.3105 28.4094 26.6475 28.0547 26.7422Z" fill="white"/>
<path fill-rule="evenodd" clip-rule="evenodd" d="M24.7734 7.71112C24.7734 8.44199 25.2363 8.81247 25.7988 8.73287C26.5675 8.62408 27.4511 6.98296 29.8713 6.7387C31.2597 6.59854 32.1551 6.745 33.2588 7.18278C34.6202 7.72275 35.3239 8.77752 35.7656 8.77752C36.9316 8.77752 37.8629 7.31507 34.5358 5.65971C32.1407 4.4681 29.5335 4.43291 27.1246 5.63263C26.5167 5.93539 24.7734 6.98967 24.7734 7.71112Z" fill="white"/>
</svg>
