<svg width="42" height="42" viewBox="0 0 42 42" fill="none" xmlns="http://www.w3.org/2000/svg">
<path fill-rule="evenodd" clip-rule="evenodd" d="M9.10546 27.7942V26.4174C9.69262 26.4174 10.012 26.5034 10.5 26.5034C10.988 26.5034 11.3074 26.4174 11.8945 26.4174C11.8945 29.649 11.9274 29.343 9.84375 29.343C9.19837 29.343 9.10546 28.4686 9.10546 27.7942ZM42 23.8883V24.865C41.9414 25.478 41.7702 26.0799 41.474 26.64C39.874 29.6655 36.0404 30.4537 33.6099 27.9042C31.8527 26.0611 31.6499 22.8126 33.4058 20.8444C34.0026 20.1755 35.1896 19.2163 36.3398 19.1894V17.4685C36.3398 13.8802 31.8811 10.4118 28.4442 14.4352C27.4791 15.5649 27.3164 17.1052 27.3164 18.6732C27.3165 22.2585 27.3164 25.8437 27.3164 29.4291C27.3164 31.302 27.4092 33.0236 27.0383 34.5583C26.352 37.3982 24.4565 40.1848 21.7977 41.2798C19.2939 42.311 17.1725 42.2529 14.7379 40.9884C13.5755 40.3846 12.393 39.2893 11.6477 38.2066C10.0512 35.887 9.76173 33.8436 9.76173 30.8919C8.78006 30.8689 8.1855 30.218 7.8853 29.3322C7.60418 28.5027 7.71094 27.1629 7.71094 26.0732C6.90969 26.0033 5.3285 25.1847 4.7409 24.8003C3.06474 23.7035 1.58332 22.0877 0.796601 20.1608C0.166553 18.6177 0.0261378 17.7524 0 16.5896V14.715H1.39453V4.81959C1.39453 4.13695 1.88112 3.14573 2.35682 2.64523C2.84839 2.12793 3.47268 1.62617 4.34767 1.54979C4.43409 0.459964 6.40995 -0.830938 7.8573 0.707875C9.72679 2.69557 6.93909 5.66842 5.02513 4.02287C4.71346 3.75487 4.5337 3.46743 4.34767 3.09864C3.30404 3.35367 2.78907 4.30773 2.78907 5.68007V14.715H4.92188C4.92188 16.2143 4.84301 17.2065 5.44075 18.5591C5.92208 19.6483 6.31637 19.9974 7.03284 20.6752C7.25507 20.8854 7.20255 20.8429 7.45877 21.0028C7.78118 21.204 8.0432 21.3591 8.43627 21.5263C10.3695 22.3488 12.7869 22.1122 14.4163 20.8882C16.3573 19.43 16.8164 17.5746 16.8164 14.715H18.2109C18.2109 13.5198 18.1289 12.6404 18.1289 11.4452C18.1289 10.3552 18.1289 9.26534 18.1289 8.1754C18.1289 6.32708 18.6333 3.58273 16.6523 3.09864C15.6167 5.15162 13.5458 4.60233 12.8493 3.30171C12.5904 2.81804 12.6328 2.51773 12.6328 1.98001C12.6328 0.992923 13.7224 0.000923709 14.6836 0.000923709C15.4622 0.000923709 16.5839 0.68726 16.6523 1.54979C18.2495 1.68919 19.6055 3.38138 19.6055 5.42191V14.715H21V16.608C21 19.144 19.9123 21.0327 18.5513 22.8163C18.2199 23.2506 17.8461 23.5294 17.4516 23.8999C16.5628 24.7348 14.3599 25.9797 13.2891 26.0732C13.2891 27.494 13.5175 29.5623 12.4382 30.4296C12.1264 30.6802 11.7403 30.8801 11.2383 30.8919V32.4407C11.2383 35.2973 12.9921 38.3908 15.366 39.6412C16.6741 40.3302 17.3541 40.4431 18.8672 40.4431C20.5021 40.4431 22.4405 39.4355 23.5248 38.2728L24.6359 36.7709C24.7526 36.5587 24.8378 36.4028 24.9351 36.2242C25.2878 35.5773 25.6392 34.3823 25.746 33.633C25.9649 32.0976 25.8398 22.186 25.8398 19.7918C25.8398 17.0813 25.8956 15.6781 26.9708 14.0082C28.8139 11.1456 32.0324 10.2752 34.9127 12.0818C35.1888 12.255 35.6075 12.6137 35.8289 12.8416C37.7095 14.7765 37.8164 16.5505 37.8164 19.1894C38.9051 19.2149 40.183 20.1164 40.7235 20.7866C41.448 21.6849 41.8967 22.7784 42 23.8883ZM37.1602 27.8802C33.3477 27.8802 32.4211 22.7258 35.4359 21.0808C36.4989 20.5008 37.6721 20.4757 38.749 21.0507C40.6583 22.0702 41.1386 24.8987 39.7684 26.5719C39.1685 27.3043 38.3224 27.8802 37.1602 27.8802ZM1.39453 16.1778H3.4453C3.48527 18.0587 4.30098 20.1595 5.59742 21.4064C5.77967 21.5817 5.86128 21.6163 6.04899 21.7932C8.55665 24.1568 13.4457 24.1253 15.8952 21.5789C17.3231 20.0945 18.2109 18.5451 18.2109 16.1778H19.6055C19.4823 17.7309 19.2723 18.6331 18.7847 19.7913C18.3559 20.8097 17.6444 21.6318 16.9201 22.3959C14.4703 24.9806 10.1197 25.6525 6.6785 24.1445C4.25219 23.0813 2.31915 20.9089 1.6721 18.2099C1.52187 17.5833 1.47616 16.8455 1.39453 16.1778ZM14.0273 2.23816C14.0273 1.26199 15.3398 1.42356 15.3398 2.06606C15.3398 2.42883 15.3753 2.92654 14.6016 2.92654C14.3303 2.92654 14.0273 2.52588 14.0273 2.23816ZM6.39845 2.92654C5.37335 2.92654 5.43237 1.54979 6.31639 1.54979C7.29792 1.54979 7.01612 2.92654 6.39845 2.92654Z" fill="white"/>
<path fill-rule="evenodd" clip-rule="evenodd" d="M36.4218 24.3523C36.4218 23.2238 37.7343 23.4812 37.7343 24.0942C37.7343 24.457 37.7698 24.9547 36.9961 24.9547C36.6655 24.9547 36.4218 24.3932 36.4218 24.3523ZM36.9961 26.5035C38.2411 26.5035 39.2109 25.5965 39.2109 24.0942C39.2109 23.0038 38.1941 22.0291 36.9961 22.0291C34.9159 22.0291 34.1626 25.2631 36.1731 26.2482C36.2746 26.2979 36.8725 26.5035 36.9961 26.5035Z" fill="white"/>
</svg>
