<svg width="42" height="42" viewBox="0 0 42 42" fill="none" xmlns="http://www.w3.org/2000/svg">
<path fill-rule="evenodd" clip-rule="evenodd" d="M21.8421 39.7321V22.261C22.178 22.4861 23.6758 24.0533 24.171 24.5499C25.3939 25.7759 25.2863 25.1174 28.0172 23.9894C28.4934 23.7927 28.874 23.5492 29.3126 23.354C29.8146 23.1306 30.1857 22.9561 30.6813 22.7079L36.1096 20.161V32.2565L29.926 35.4753C29.5646 35.656 29.3768 35.7959 29.0041 35.9806L21.8421 39.7321ZM5.89607 20.161C6.27064 20.2484 6.82876 20.595 7.20983 20.7781L12.5826 23.2965C13.4607 23.7037 16.258 25.2008 16.8904 25.2008C17.5536 25.2008 19.261 22.8658 20.1635 22.261V39.7321C19.8651 39.5741 19.5876 39.4568 19.2679 39.2845L10.4282 34.6083C9.67512 34.2335 6.20573 32.3287 5.89607 32.2565V20.161ZM25.4509 23.2689C25.1886 23.2689 22.6357 20.5956 22.5135 20.413C24.3951 19.4166 27.5725 18.0568 29.6186 17.0246L31.3806 16.1841C31.6985 16.0314 31.958 15.9408 32.2493 15.7936C32.5425 15.6454 32.8241 15.4873 33.1479 15.349C33.9052 15.0255 36.2677 13.813 36.781 13.6934L39.6551 16.5285C38.2882 17.2976 34.0447 19.1759 32.5847 19.9091C32.0078 20.1988 31.398 20.4586 30.8225 20.7493L25.4509 23.2689ZM5.22466 13.6934C5.52436 13.6934 10.6966 16.2228 11.4622 16.6062L19.4921 20.413L16.6593 23.2896C16.2048 23.173 11.4211 20.8668 10.4011 20.356L2.37116 16.5492C2.5426 16.293 5.14252 13.6934 5.22466 13.6934ZM7.15498 12.5174C7.37607 12.4659 7.811 12.2651 8.05059 12.1538C8.36091 12.0098 8.58082 11.8882 8.8888 11.7328L20.9189 6.04971C21.227 6.04971 24.6293 7.69366 25.2552 8.00945L28.7237 9.66187C29.015 9.80904 29.2745 9.89972 29.5924 10.0524L34.8507 12.6854C34.3724 12.7969 29.0521 15.4184 27.9411 15.9336C27.6077 16.0883 27.3987 16.1608 27.0733 16.3251L21.0028 19.1531C20.6694 19.1531 7.79892 12.8356 7.15498 12.6854V12.5174ZM25.367 1.93393C25.6752 1.93393 35.9798 6.90866 36.0534 6.94584L39.6345 8.65361L36.8016 11.5301C36.2926 11.3996 22.921 5.00563 22.5135 4.78979C22.6849 4.53353 25.2848 1.93393 25.367 1.93393ZM5.3086 11.5095C5.04624 11.5095 2.49333 8.83617 2.37116 8.65361C2.94585 8.34925 3.55286 8.10756 4.13395 7.81396C6.08806 6.82655 8.39822 5.83486 10.3454 4.87501L13.0056 3.58956C13.6659 3.30752 14.1437 3.02014 14.7805 2.76211C15.378 2.51998 15.9801 2.08747 16.6386 1.93393L19.5128 4.76909C19.2178 4.93508 18.9313 5.06954 18.6532 5.21007C16.5524 6.27158 13.7279 7.50576 11.574 8.54051L5.3086 11.5095ZM0.0212245 8.31762C0.0212245 8.99607 0.366257 9.12491 0.839518 9.59853C1.45037 10.2099 3.54029 12.2164 3.79793 12.6014C3.48164 13.0741 2.32865 14.1139 1.84663 14.5963C1.50443 14.9388 1.22367 15.2198 0.881458 15.5623C0.282854 16.1614 -0.704593 17.0143 0.774483 17.7272L4.21754 19.3211V31.5845C4.21751 33.3622 3.83815 33.1626 6.2877 34.3844C6.89573 34.6877 7.33574 34.9514 7.93828 35.2523C8.52772 35.5467 8.94733 35.7998 9.53287 36.0923L14.3726 38.6402C14.7398 38.8236 20.5047 42 20.9189 42C21.5582 42 22.096 41.5334 22.7369 41.2157C24.8402 40.1734 27.1019 38.8553 29.1715 37.828L34.0113 35.2803C35.0865 34.7452 36.1361 34.1391 37.2032 33.603C37.9737 33.216 37.7882 32.8394 37.7881 31.7525V19.3211C38.158 19.2348 38.5427 18.9684 38.8802 18.8182L41.1741 17.7542C42.9647 16.867 41.4784 15.9168 40.159 14.5963C39.677 14.1139 38.524 13.0741 38.2077 12.6014C38.8597 11.627 41.9844 9.16844 41.9844 8.48561C41.9844 7.52214 41.0817 7.45048 40.1933 7.00229C37.1978 5.4911 33.6393 3.97612 30.6813 2.4949L28.5842 1.48586C27.9061 1.14458 25.6169 0.00200234 25.1152 0.00200234C24.4302 0.00200234 21.9837 3.12448 21.0028 3.78184C20.6149 3.52183 18.6555 1.47453 18.0444 0.86295C16.8727 -0.309692 17.0502 -0.294802 14.5685 0.954009C14.2017 1.13864 13.8744 1.25999 13.5321 1.42868L0.774483 7.47557C0.424724 7.64416 0.0212245 7.80336 0.0212245 8.31762Z" fill="white"/>
</svg>
