<svg width="42" height="42" viewBox="0 0 42 42" fill="none" xmlns="http://www.w3.org/2000/svg">
<path fill-rule="evenodd" clip-rule="evenodd" d="M1.39455 39.7031V25.4297C1.39455 24.9178 1.62925 24.5274 2.13281 24.5274H5.57812C5.87791 24.5274 6.23437 24.7537 6.23437 25.0195V39.9492C6.23437 40.4475 5.82033 40.6055 5.33205 40.6055H2.29687C1.68193 40.6055 1.39455 40.3181 1.39455 39.7031ZM11.0011 0H11.388C11.6211 0.0398141 11.8793 0.153768 12.1762 0.374606C13.8097 1.5898 15.1668 1.55765 16.9798 1.8054C17.7354 1.90866 18.2109 2.50137 18.2109 3.03517C18.2109 4.69443 18.3833 9.84629 17.6367 11.4024C19.8768 10.8805 21.9204 11.2339 23.7891 12.2227C23.7891 10.1993 23.7915 8.17568 23.789 6.1523C23.7875 4.90891 23.871 4.48218 24.4538 3.78196C25.515 2.50726 26.8241 2.78906 28.7109 2.78906V1.88673C28.7109 0.955135 29.6786 0 30.5977 0H35.1914C35.8324 0 36.3845 0.430388 36.6832 0.805024C37.1082 1.33786 37.1602 1.98373 37.1602 2.78906H39.457C40.668 2.78906 42 4.0784 42 5.41406V15.5859C42 16.7209 41.1359 17.6389 40.3029 17.9904C39.6347 18.2723 39.3569 18.211 38.4727 18.2109H28.4649C29.0558 20.7475 28.5623 23.5335 27.0834 25.5248C26.6184 26.151 26.1683 26.7068 25.5696 27.2103C24.8386 27.825 24.4321 28.0378 23.625 28.4649C23.7053 28.7655 23.7779 28.7168 23.9661 28.9441C24.987 30.1771 24.5104 31.3744 24.4453 32.1563C25.5823 32.1563 25.688 32.0293 26.5065 31.7565L31.9206 29.9518C32.7513 29.675 38.4617 27.6445 39.2109 27.6445C40.8622 27.6445 42 28.7543 42 30.1055C42 32.0799 40.7888 32.5222 39.0516 33.5555L27.938 40.3248C26.3097 41.3272 25.4949 41.3437 22.9687 41.3437L8.03878 41.3435C7.2741 41.3396 7.30179 41.2476 6.83264 41.6139C6.58166 41.8099 6.15459 42 5.74219 42H1.88673C0.970732 42 0 41.0293 0 40.1133V25.0195C0 24.001 1.02655 23.0508 2.21486 23.0508H5.33205C6.31245 23.0508 7.34213 23.5665 7.54687 24.4453C9.25128 24.4453 10.7112 24.5188 11.8125 25.1016C11.7536 24.8809 11.4389 24.3616 11.3191 24.1184C11.1762 23.8286 11.0199 23.4393 10.9188 23.1242C10.4023 21.5146 10.3614 19.78 10.7461 18.1289C9.54902 18.0293 7.73742 16.435 6.90889 15.4857C3.79796 11.921 4.18361 7.61301 4.18361 3.03517C4.18361 2.74668 4.44646 2.30531 4.6135 2.15256C4.86352 1.92391 5.07115 1.85263 5.48888 1.79749C6.23199 1.69938 6.93735 1.67638 7.66176 1.50943C8.49888 1.3165 8.87106 1.15501 9.51683 0.821522C10.0486 0.546947 10.4684 0.0924964 11.0011 0ZM24.8555 39.8672H7.71094V25.9219C10.3001 25.9219 10.803 25.9538 12.7493 27.364C16.1036 29.7943 19.3526 28.0326 21.6132 28.918C23.0418 29.4775 23.589 30.674 22.8047 32.1563C19.9406 32.1563 17.139 31.799 14.7158 33.4189C14.3805 33.6431 14.0338 33.7574 13.9746 34.237C13.9358 34.5515 14.3022 35.4947 15.3638 34.7232C17.0878 33.4702 18.4533 33.6328 20.6719 33.6328C21.875 33.6328 23.0782 33.6314 24.2813 33.6328C25.8001 33.6347 26.2041 33.3887 27.3474 33.0075C31.0331 31.7785 34.6292 30.5837 38.2981 29.3567C38.7204 29.2155 39.2192 28.9722 39.7071 29.1113C40.7022 29.3949 40.8793 30.6676 40.0349 31.2576L30.9613 36.7855C30.5356 37.0415 30.1993 37.248 29.7933 37.5042C28.5345 38.2986 26.2541 39.8672 24.8555 39.8672ZM19.2774 12.6328C21.9841 12.6328 24.2228 13.6278 25.7707 15.7371C25.996 16.0442 26.2925 16.4879 26.4696 16.8429C27.7438 19.3976 27.4386 22.5956 25.7707 24.8683C25.1504 25.7136 22.9708 27.8295 21.7058 27.4352C20.6901 27.1187 18.7742 27.2344 17.7187 27.2344C16.3383 27.2344 16.298 27.3267 15.4206 26.7435C14.3921 26.06 13.3834 24.9931 12.7955 23.8725C11.0082 20.4657 12.0388 16.2926 15.1282 14.0618C16.0649 13.3854 17.7115 12.6328 19.2774 12.6328ZM25.1836 12.9609V6.07031C25.1836 5.17657 25.4763 4.26562 26.4961 4.26562H39.457C40.0757 4.26562 40.6055 4.99056 40.6055 5.82423V15.1758C40.6055 16.7474 39.5305 16.7356 38.6368 16.7344L27.9727 16.7344C27.7734 15.879 26.6469 14.4704 25.9836 13.8016C25.5451 13.3595 25.1836 13.2218 25.1836 12.9609ZM5.57812 3.19923C6.76907 3.19923 7.86253 2.99988 8.76728 2.69697C10.506 2.1148 10.811 1.59064 11.2383 1.47656C11.4255 1.60193 11.5344 1.71234 11.7645 1.85272C11.9812 1.985 12.1164 2.07374 12.3306 2.18891C13.4423 2.78652 15.3333 3.19923 16.7344 3.19923C16.7344 6.00206 16.9917 9.05944 16.0329 11.6852C15.908 12.0274 15.8761 11.9856 15.5646 12.1193C13.9808 12.7991 11.6063 15.1548 11.2383 16.7344C10.0996 16.709 8.00703 14.8166 7.26464 13.5713C5.21059 10.1256 5.76684 7.82197 5.66284 4.34497C5.64984 3.91065 5.57812 3.72534 5.57812 3.19923ZM30.1055 2.29687C30.1055 1.68193 30.3929 1.39455 31.0078 1.39455H34.7812C35.8188 1.39455 35.6836 2.13114 35.6836 2.78906H30.1055V2.29687Z" fill="white"/>
<path fill-rule="evenodd" clip-rule="evenodd" d="M29.4492 10.7462V10.254C29.4492 8.63207 31.0265 7.05479 32.6484 7.05479C33.4668 7.05479 33.6825 7.02425 34.4535 7.38251C35.3446 7.79653 36.3398 9.02556 36.3398 10.172C36.3398 11.406 36.2655 12.0107 35.3353 12.9409C33.1046 15.1716 29.4492 13.4198 29.4492 10.7462ZM27.9727 10.336C27.9727 11.9327 28.4992 13.0427 29.4283 13.9664C30.9076 15.4371 33.1081 15.8561 34.9744 14.9588C35.5993 14.6584 35.9031 14.4235 36.3605 13.9661C36.8179 13.5086 37.0528 13.2049 37.3533 12.58C39.6555 7.7915 33.4039 3.0812 29.4283 7.03383C28.7152 7.74279 27.9727 8.95346 27.9727 10.336Z" fill="white"/>
<path fill-rule="evenodd" clip-rule="evenodd" d="M18.8659 15.5039C17.8635 15.7374 16.8151 16.749 16.8151 17.9648C16.8151 18.9482 16.8716 19.4935 17.6947 20.2844C18.9148 21.4569 20.9815 20.5502 20.9815 22.3945C20.9815 22.7067 20.7969 23.1198 20.6131 23.3214C19.9105 24.0923 18.7151 23.8133 18.3476 22.9948C18.1968 22.6589 18.3097 21.6562 17.4714 21.6562C16.2394 21.6562 16.7131 24.6 18.8659 25.1015C18.886 26.0031 19.7604 26.1024 20.1224 25.7019C20.5527 25.2258 19.9068 25.3439 20.8341 24.937C23.3089 23.8511 22.6802 19.8177 20.0102 19.6096C19.5965 19.5773 19.4182 19.5979 19.0851 19.4682C17.7185 18.9358 18.0698 16.8164 19.6042 16.8164C20.4802 16.8164 20.8367 17.4461 20.9762 18.1514C21.2375 19.4733 22.3932 18.8034 22.3932 18.375C22.3932 15.8904 20.7637 15.8808 20.395 15.4513C20.2511 15.2836 20.2597 14.6836 19.6042 14.6836C19.1331 14.6836 18.8765 15.027 18.8659 15.5039Z" fill="white"/>
<path fill-rule="evenodd" clip-rule="evenodd" d="M9.76271 10.09C9.29635 9.77769 9.0468 9.1056 8.36816 9.1056C7.90497 9.1056 7.71191 9.40408 7.71191 9.84386C7.71191 10.2952 9.31136 11.8947 9.76271 11.8947C10.2792 11.8947 10.3452 11.7016 10.6069 11.3444L14.1925 6.56267C14.5846 6.04215 14.6846 6.04187 14.6846 5.41417C14.6846 5.32323 14.2027 4.22667 13.2261 5.43225L9.76271 10.09Z" fill="white"/>
<path fill-rule="evenodd" clip-rule="evenodd" d="M32.1551 9.26955V9.76173C31.7913 9.76173 31.2973 9.71556 31.0234 9.94248C30.5821 10.3079 30.6609 11.2383 31.6629 11.2383H32.1551C32.1551 11.8465 32.0731 12.6328 32.9754 12.6328C33.681 12.6328 33.6317 11.6837 33.6317 11.2383C34.1663 11.2383 35.0262 11.312 35.0262 10.5C35.0262 9.688 34.1663 9.76173 33.6317 9.76173C33.6317 9.31628 33.681 8.36719 32.9754 8.36719C32.4187 8.36719 32.1551 8.70356 32.1551 9.26955Z" fill="white"/>
</svg>
