<svg width="42" height="34" viewBox="0 0 42 34" fill="none" xmlns="http://www.w3.org/2000/svg">
<path fill-rule="evenodd" clip-rule="evenodd" d="M32.1562 12.4053C32.1562 12.9481 32.6679 13.382 33.2899 12.8033L34.2092 11.912C34.4289 11.7375 34.1479 11.8559 34.4531 11.7447C35.086 12.6961 35.4339 12.8253 36.0712 14.3273C36.5441 15.442 36.9141 16.5038 36.9141 17.9378H35.2734C34.4569 17.9378 34.4282 19.1764 35.2734 19.1764H36.9141C36.9141 21.2559 35.5351 24.5849 34.3711 25.3695C33.6726 24.8987 33.4385 24.0483 32.6484 24.0483C32.438 24.0483 32.1562 24.2777 32.1562 24.7089C32.1562 25.2745 33.1781 25.9234 33.4687 26.3604L32.2391 27.2696C31.7842 27.5735 31.3633 27.8092 30.797 28.0474C29.7375 28.4928 28.6673 28.807 27.3164 28.9202C27.3164 28.5695 27.3836 27.1785 27.2514 26.9212C27.0772 26.582 26.0805 26.2004 26.0812 27.4291C26.0815 27.9256 26.0859 28.4232 26.0859 28.9202C24.7561 28.8088 23.6379 28.4998 22.5926 28.0602C21.8247 27.7373 20.3284 26.8713 19.9336 26.2778C20.2212 25.8455 21.2461 25.1562 21.2461 24.7089C21.2461 24.2426 20.9476 24.0483 20.5078 24.0483C20.1558 24.0483 19.2931 25.1377 18.9492 25.3695C18.3896 24.5282 17.9394 24.3285 17.2605 22.6929C16.8583 21.7238 16.4305 20.2735 16.4062 19.1764C18.2578 19.1764 18.7031 19.4015 18.7031 18.4333C18.7031 17.7222 17.2725 17.9378 16.4062 17.9378C16.4301 16.8601 16.8517 15.4063 17.2605 14.4213C17.9163 12.8413 18.3187 12.6926 18.9492 11.7447C19.5709 12.1637 19.8828 13.0659 20.7539 13.0659C20.9857 13.0659 21.2461 12.7215 21.2461 12.4879C21.2461 11.9223 20.2243 11.2734 19.9336 10.8364C20.7511 9.60752 24.0146 8.27659 26.0859 8.27659V9.92808C26.0859 10.6527 26.9949 10.6897 27.2391 10.2637C27.43 9.93082 27.3164 8.71457 27.3164 8.19403C27.5678 8.31542 30.4046 8.32922 32.8248 10.246C33.0493 10.4238 33.2388 10.5988 33.4687 10.7538C33.1781 11.1908 32.1562 11.8397 32.1562 12.4053ZM15.0938 18.5158C15.0938 26.0369 22.1603 31.5736 29.1539 29.9441C31.2813 29.4485 33.1105 28.4614 34.6797 27.0014C34.9602 26.7404 35.1081 26.5599 35.3434 26.2657C35.9882 25.4596 36.566 24.751 37.0516 23.7739C37.649 22.5717 38.2266 20.6108 38.2266 19.259C38.2266 17.0471 38.117 15.3217 37.0311 13.361C36.2057 11.8705 36.3924 12.1142 35.298 10.8117C32.6459 7.65523 27.9378 6.21431 23.9189 7.25127C22.58 7.59677 21.9794 7.89972 20.8897 8.49589C20.5252 8.69535 20.3092 8.83743 19.9917 9.07823C17.7264 10.7968 16.0056 13.0772 15.4132 15.9473C15.2678 16.6519 15.0938 17.6692 15.0938 18.5158Z" fill="white"/>
<path fill-rule="evenodd" clip-rule="evenodd" d="M24.1992 3.32205V1.34027H29.1211V3.32205C28.5524 3.30929 28.0951 3.1569 27.3984 3.1569C26.7059 3.1569 25.805 3.12937 25.1593 3.21499C24.859 3.25482 24.4334 3.31681 24.1992 3.32205ZM22.9687 3.56979C22.3578 3.86488 21.0732 3.97831 19.0656 5.17324C18.5734 5.46621 16.0781 7.01138 16.0781 7.69851C16.0781 7.98633 16.4485 8.35911 16.7344 8.35911C17.0376 8.35911 18.1245 7.31421 18.7355 6.90529L20.3315 5.95214C24.1146 3.95437 28.9923 3.90771 32.8399 5.85425C34.6023 6.74592 36.0259 7.83541 37.2621 9.2474C41.4422 14.0222 41.9286 21.4788 38.2619 26.561L36.9762 28.1569C36.7728 28.3891 36.7745 28.4816 36.5172 28.6858C35.2054 29.7269 36.2087 30.2302 36.574 30.196C37.1434 30.1426 38.6775 28.1788 38.9767 27.7761C40.6542 25.5186 42 22.2328 42 19.0938C42 16.3154 41.8166 15.1053 40.8283 12.5938C40.4698 11.6827 39.9449 10.7563 39.4207 9.96458C39.3023 9.78586 39.2077 9.66881 39.0798 9.48194C38.3545 8.42206 36.9799 7.03333 35.9073 6.23468C34.2877 5.02866 32.9916 4.39526 31.0598 3.76519C30.8302 3.69028 30.6073 3.65369 30.4336 3.56979C30.4336 -0.475338 31.103 0.0190772 24.6094 0.0190772C23.7686 0.0190772 23.1167 0.26666 22.9866 0.945327C22.894 1.42838 22.9687 2.9764 22.9687 3.56979Z" fill="white"/>
<path fill-rule="evenodd" clip-rule="evenodd" d="M34.5348 30.4066C34.3971 30.4066 33.1263 31.1154 32.8941 31.2323C27.7851 33.8044 22.1578 32.9493 17.7527 29.4637C17.0877 28.9375 16.5387 28.3342 15.9765 27.7009C12.7154 24.0276 11.7893 18.4671 13.5441 13.5708C13.9286 12.498 14.4477 11.5687 15.0603 10.638C15.4007 10.1209 15.6676 9.9454 15.6676 9.51525C15.6676 9.1518 15.11 8.03365 13.8969 10.045C11.8731 13.4005 11.6458 14.8005 11.3419 18.4562C11.214 19.995 11.8884 22.9748 12.5256 24.4861C12.6328 24.7405 12.7013 24.8443 12.8079 25.1103L14.5181 27.9303C15.9895 29.8581 17.8369 31.4034 20.0303 32.4557C21.7895 33.2996 22.9419 33.6148 24.9939 33.9001C25.8247 34.0156 27.4216 34.0456 28.3369 33.9114C30.8552 33.5423 31.7569 33.2397 33.9062 32.1685C34.2353 32.0044 34.808 31.7076 35.0126 31.4615C35.3867 31.0114 34.9732 30.4066 34.5348 30.4066Z" fill="white"/>
<path fill-rule="evenodd" clip-rule="evenodd" d="M0 18.6811C0 19.057 0.19569 19.342 0.65625 19.342H8.61329C9.19215 19.342 9.57224 18.0203 8.28517 18.0203H0.902359C0.414048 18.0203 0 18.1794 0 18.6811Z" fill="white"/>
<path fill-rule="evenodd" clip-rule="evenodd" d="M26.0859 13.6439V18.5158C26.0859 18.6825 26.3095 19.0112 26.6602 19.0112C27.0675 19.0112 27.2733 18.6848 27.501 18.4539C27.9155 18.0338 29.5313 16.6253 29.5313 16.1211C29.5313 15.569 29.2219 15.4605 28.793 15.4605C28.5185 15.4605 27.6205 16.5767 27.3164 16.7817C27.3164 16.0936 27.316 15.4054 27.3164 14.7173C27.3169 14.0119 27.4347 13.1484 26.7422 13.1484C26.4424 13.1484 26.0859 13.3763 26.0859 13.6439Z" fill="white"/>
<path fill-rule="evenodd" clip-rule="evenodd" d="M2.46094 14.9654C2.46094 15.302 2.52537 15.7089 3.11719 15.7089H9.35156C10.0908 15.7089 10.4661 14.3872 8.94142 14.3872C8.01044 14.3872 3.32525 14.2821 2.82091 14.5018C2.64618 14.578 2.46094 14.7612 2.46094 14.9654Z" fill="white"/>
<path fill-rule="evenodd" clip-rule="evenodd" d="M2.46094 22.0666C2.46094 22.4929 2.80249 22.7275 3.19923 22.7275H9.10548C10.3865 22.7275 10.033 21.4058 9.43361 21.4058H3.11719C2.72038 21.4058 2.46094 21.667 2.46094 22.0666Z" fill="white"/>
<path fill-rule="evenodd" clip-rule="evenodd" d="M4.42969 25.5347C4.42969 26.0893 4.6091 26.3608 5.33205 26.3608H9.76173C10.2589 26.3608 10.6333 26.2783 10.7689 25.8783C10.8972 25.4998 10.6575 25.0391 10.1719 25.0391H4.92187C4.72435 25.0391 4.42969 25.3358 4.42969 25.5347Z" fill="white"/>
<path fill-rule="evenodd" clip-rule="evenodd" d="M4.42969 11.4147C4.42969 11.8314 4.65127 12.0755 4.92187 12.0755H10.1719C10.9884 12.0755 11.0171 10.8364 10.1719 10.8364H5.00392C4.62097 10.8364 4.42969 11.029 4.42969 11.4147Z" fill="white"/>
</svg>
