<svg width="42" height="42" viewBox="0 0 42 42" fill="none" xmlns="http://www.w3.org/2000/svg">
<path fill-rule="evenodd" clip-rule="evenodd" d="M1.35484 18.5947C1.35484 17.9969 1.63526 17.1733 1.8655 16.7979C2.45278 15.8403 4.48661 14.2974 5.27689 13.3092C7.02821 11.1191 6.39682 8.27161 7.76929 6.57685C8.93 5.14362 10.2938 5.29068 12.0286 5.14592C12.4117 5.11395 12.8001 5.17054 13.1866 5.1181C13.938 5.01616 14.4302 5.02837 15.0986 4.73925C16.1333 4.29161 16.9844 3.54105 17.8428 2.88906C20.5318 0.84652 21.4064 0.799359 24.1089 2.8522C24.985 3.5176 25.8187 4.24724 26.8427 4.71298C27.514 5.0183 28.8884 5.1409 29.8091 5.13873C30.3199 5.13753 30.4226 5.22651 30.9045 5.22994C32.9661 5.24468 34.4013 5.97685 34.9559 8.07088C35.4699 10.0114 35.6343 12.6071 37.2216 13.833L38.379 14.9754C38.6211 15.202 38.7668 15.2756 39.0159 15.5306C40.3748 16.9215 41.2515 18.1468 40.1664 20.4239C39.8978 20.9877 39.6356 21.4062 39.3749 21.9366C38.8677 22.9689 38.2546 23.9322 38.2247 25.3749L38.6767 29.5025C38.8302 30.6375 38.1609 32.0123 37.1919 32.6666C35.3851 33.8866 32.7749 34.046 31.3973 36.1429L30.0439 38.201C29.8751 38.474 29.7759 38.6668 29.5879 38.9392C27.1462 42.4783 23.7715 39.2461 21 39.2461C18.21 39.2461 15.0073 42.4234 12.4821 39.0397L10.6469 36.1839C9.51841 34.5884 8.37729 34.313 6.45898 33.481C5.18576 32.9289 4.49102 32.7206 3.75913 31.5002C2.86825 30.0148 3.65577 27.7222 3.7493 25.4129C3.84942 22.941 1.35484 20.7057 1.35484 18.5947ZM0 18.3377C0 19.9402 0.315569 20.7344 1.14976 22.1442C2.5579 24.524 2.47237 25.1088 2.16589 27.3847C1.99961 28.6194 1.9476 28.8224 1.9476 30.0772C1.9476 31.8039 3.16458 33.322 4.25925 33.9933C5.48155 34.7428 7.53208 35.3417 8.53854 36.0039C9.38173 36.5586 9.95234 37.7303 10.5339 38.6119C11.2103 39.637 11.6656 40.5026 12.7162 41.2021C14.5997 42.4562 16.3283 42.0074 18.2803 41.3781C21.8396 40.2308 21.1066 40.6592 24.8947 41.7315C27.2887 42.4091 29.3793 41.7896 30.7892 39.6407C31.4754 38.5949 32.5968 36.5728 33.4615 36.0039C35.3195 34.7814 37.8864 34.6823 39.2864 32.4725C40.8029 30.0788 39.629 27.7845 39.629 25.3643C39.629 23.1147 42 21.6637 42 18.3377C42 16.9526 41.1828 15.6742 40.4752 14.9964C37.2628 11.9199 37.4274 12.6708 36.6317 9.1172C36.2715 7.509 36.2423 6.89153 35.2628 5.61808C34.6034 4.76079 33.4192 4.04172 32.1567 3.87698C29.1041 3.47863 28.3273 4.27726 26.1775 2.64405C25.5092 2.13626 23.9684 0.905115 23.3159 0.56987C22.1836 -0.0118701 21.8364 1.8331e-05 20.6613 1.8331e-05C19.2319 1.8331e-05 18.1776 0.857208 17.3226 1.50574C16.6025 2.05201 15.2299 3.21287 14.4431 3.47614C13.6661 3.73611 13.1555 3.59207 12.314 3.72082C11.6328 3.82509 10.6971 3.81181 9.99639 3.86055C8.73661 3.94814 7.37476 4.78654 6.76085 5.55635C5.9062 6.62793 5.72321 7.46744 5.38363 9.04698C5.3048 9.41361 5.22971 9.65538 5.14764 10.0078C4.48398 12.8576 4.22488 12.2797 1.57451 14.961C0.70533 15.8403 0 16.9604 0 18.3377Z" fill="white"/>
<path fill-rule="evenodd" clip-rule="evenodd" d="M8.55281 21.5082C8.55281 19.27 8.7787 17.5201 9.70943 15.6521C10.066 14.9364 10.3417 14.3742 10.79 13.7464C11.0108 13.4371 11.2168 13.1649 11.4571 12.8791C11.6023 12.7064 11.6726 12.6658 11.8194 12.4745C11.9773 12.2688 11.9899 12.2409 12.1703 12.0584C12.4427 11.7827 12.6487 11.6563 12.9339 11.3744C14.54 9.78688 18.0303 8.39767 20.4923 8.39767C22.704 8.39767 24.4333 8.62625 26.2792 9.56811C27.5556 10.2194 28.8151 11.0308 29.8305 12.0584C31.8729 14.1253 33.448 17.4595 33.448 20.4799C33.448 22.7181 33.2221 24.4681 32.2913 26.3361C31.3011 28.3235 30.5932 29.229 29.0645 30.6114C27.2183 32.281 24.1158 33.5905 21.5084 33.5905C19.2967 33.5905 17.5674 33.3619 15.7215 32.4201C15.3847 32.2482 15.0839 32.1211 14.7687 31.9275C13.9446 31.4213 12.8382 30.6057 12.1703 29.9298L11.4967 29.1547C10.741 28.2989 10.2502 27.4196 9.73794 26.3929C9.16478 25.2441 8.55281 23.2329 8.55281 21.5082ZM7.11328 20.9941C7.11328 28.6986 13.3903 35.0472 21.0004 35.0472C28.6129 35.0472 34.8875 28.6962 34.8875 20.9941C34.8875 13.293 28.6138 6.94092 21.0004 6.94092C13.3888 6.94092 7.11328 13.2896 7.11328 20.9941Z" fill="white"/>
<path fill-rule="evenodd" clip-rule="evenodd" d="M19.3907 25.9642C18.7121 25.9642 18.2245 25.2554 17.8453 24.8716L15.2203 22.2152C14.8844 21.8752 14.056 21.2126 14.056 20.6514C14.056 19.9282 14.5573 19.4517 15.3262 19.4517C16.3769 19.4517 18.3347 22.7936 19.3907 22.7936C19.8689 22.7936 20.7802 21.6874 21.2748 21.1869L22.5487 19.8197C22.697 19.6402 22.8452 19.5118 23.0106 19.3446L25.6356 16.6881C25.929 16.3892 26.201 16.0241 26.7576 16.0241C27.4097 16.0241 27.9346 16.5847 27.9266 17.2248C27.9186 17.8572 27.3098 18.336 26.9481 18.7019C26.1089 19.5512 25.3317 20.3377 24.4925 21.1869L20.8514 24.9573C20.5433 25.2691 19.926 25.9642 19.3907 25.9642ZM19.306 21.0798C19.0112 20.6343 17.9938 19.7093 17.549 19.2589C16.9909 18.6941 16.3221 17.995 15.2415 17.995C13.851 17.995 12.7012 19.0817 12.7012 20.7371C12.7012 22.113 14.2693 23.3094 15.432 24.486C15.989 25.0496 16.484 25.5505 17.0409 26.1141C18.1039 27.19 18.3043 27.3352 19.6447 27.3352C20.7414 27.3352 21.8381 25.9296 22.4602 25.3001L27.2445 20.3729C28.5273 19.0748 29.2979 18.7066 29.2979 16.9667C29.2979 15.9574 28.2375 14.6531 26.927 14.6531C25.5441 14.6531 25.361 14.9953 24.4078 15.9599C23.8226 16.5521 23.2995 17.0815 22.7143 17.6737C22.1915 18.2027 19.6525 20.845 19.306 21.0798Z" fill="white"/>
</svg>
